<svg xmlns="http://www.w3.org/2000/svg" viewBox="0 0 64 64">
  <rect width="64" height="64" rx="14" fill="#05060a"/>
  <circle cx="32" cy="32" r="23" fill="#080a12" stroke="#a78bfa" stroke-width="2.6"/>
  <path d="M20.2 10.8 27 22l-10.5 3c-.5-5.5.7-10.2 3.7-14.2Z" fill="#a78bfa"/>
  <path d="M43.8 10.8 37 22l10.5 3c.5-5.5-.7-10.2-3.7-14.2Z" fill="#a78bfa"/>
  <path d="M22.5 19.5h11.8c8.1 0 14.2 5.4 14.2 12.4 0 7.1-6.1 12.1-14.2 12.1H22.5V19.5Zm7.1 6v12.4h4.2c4.3 0 7.2-2.4 7.2-6 0-3.8-2.9-6.4-7.2-6.4h-4.2Z" fill="#f8fafc"/>
  <path d="M16.8 16.4c5-5.2 12.4-7.3 19.5-5.5 5.4 1.4 9.4 4.7 11.6 9.2-9.1-5.7-20.2-5.5-31.1-3.7Z" fill="#fff" opacity=".18"/>
</svg>
